<?xml version="1.0" encoding="utf-8" ?><svg xmlns="http://www.w3.org/2000/svg" xmlns:xlink="http://www.w3.org/1999/xlink" width="399" height="399" viewBox="0 0 399 399"><path d="M159.86 42.5665C160.805 42.9891 160.475 42.7279 161.101 43.5788C161.433 45.1432 154.773 60.7597 153.541 63.1426L154.7 63.6037C156.412 64.2885 158.185 64.6159 158.847 66.1596C158.806 67.5366 157.875 68.9636 157.227 70.3074C158.389 70.714 159.403 71.1858 160.492 71.759C168.847 76.1572 177.564 79.7626 185.948 84.1031C187.489 84.9011 189.312 85.8597 190.936 86.4342C192.369 85.8958 193.777 85.2364 195.13 84.5223C202.515 80.225 211.264 77.3562 218.638 73.3101C227.815 68.275 238.59 64.4714 247.343 59.0463C243.507 59.0569 238.214 60.1937 234.182 60.7275C228.03 61.542 221.381 62.3638 215.285 63.5336C212.594 64.0498 214.529 65.5897 213.77 66.9935C212.67 67.3639 205.923 68.6601 205.042 68.4524C203.895 66.665 204.149 62.5671 203.299 59.7772L203.187 59.4215C206.446 58.2813 209.341 58.1973 212.755 57.9279C212.951 59.0042 213.036 59.8195 213.556 60.7967C215.13 61.6957 247.359 56.0147 251.347 55.6969C252.796 55.5813 259.144 53.7857 260.999 53.3786C261.69 53.2268 262.685 54.0642 263.335 54.4774C260.888 56.211 256.599 57.6988 253.614 59.1541L226.544 72.1427L203.426 83.238C200.217 84.7575 196.768 86.8282 193.458 87.9133C197.016 88.8992 202.684 92.1171 206.159 93.8917C212.298 97.0443 218.469 100.133 224.671 103.157C228.076 104.826 230.998 106.616 234.706 107.365C233.093 101.148 231.861 95.0141 229.647 88.9522C229.195 87.7147 227.545 84.0597 228.382 83.1932L228.713 83.3941C229.165 84.5968 229.526 84.975 230.03 86.0217C233.004 92.1943 235.636 99.2362 237.864 105.624C238.979 105.184 240.041 104.545 241.159 104.102C249.176 100.928 257.471 96.0537 265.477 93.0828C265.472 92.8992 265.469 92.7156 265.468 92.5319C265.446 82.4831 274.065 77.9133 282.038 84.8885C283.81 86.4387 284.282 89.7395 284.177 92.0302C283.998 95.9347 281.732 97.853 278.972 100.294C278.867 108.197 279.415 122.217 278.58 129.498C282.874 130.868 291.173 134.929 295.173 137.31C294.844 130.374 294.696 123.418 294.203 116.465C293.934 112.68 294.158 108.692 293.99 104.877L292.992 82.2507C292.916 80.5186 292.123 74.3539 292.743 73.0935L293.314 72.9386C294.223 73.3091 297.243 73.5304 297.331 74.0796C300.103 91.3004 303.292 108.466 306.667 125.592C307.107 127.824 308.565 139.742 309.566 140.54C309.689 140.508 310.82 140.226 310.842 140.228C313.643 140.528 319.491 143.444 321.653 144.691C320.466 146.594 319.939 147.48 319.032 149.589C322.552 150.979 346.104 162.03 346.998 163.898C346.708 164.625 346.943 164.32 346.16 164.749C344.534 164.848 343.595 164.142 342.189 163.477C334.241 159.715 326.179 155.285 318.062 151.916C316.991 153.384 316.761 155.009 315.117 155.77C313.75 155.521 313.953 154.732 312.521 154.16L312.136 154.433C312.029 156.325 315.241 173.977 315.963 174.6C318.818 172.192 322.916 160.885 326.464 158.441C326.757 158.239 326.88 158.409 327.302 158.593L327.521 159.154C327.023 162.165 318.432 175.823 316.373 179.568C316.864 183.448 317.928 188.106 318.687 192.002L322.865 213.9L325.995 231.156C326.452 233.74 327.023 237.985 327.707 240.335C333.109 237.897 338.788 235.804 344.261 233.51C345.576 232.959 348.178 231.545 349.302 232.564C349.366 234.097 348.731 234.534 347.392 235.1C343.497 236.747 337.527 238.44 333.972 240.586C333.482 241.556 334.658 250.059 334.788 252.239C336.011 253.641 338.712 256.601 338.284 258.376C337.545 259.047 337.965 258.861 336.982 258.965C334.472 257.933 332.881 250.675 330.146 253.134C330.564 256.192 334.935 271.751 333.456 273.409C332.643 273.371 331.546 272.867 331.425 272.041C330.552 266.049 328.65 259.381 327.85 253.483C325.881 253.551 324.015 253.836 322.066 254.1C322.173 250.809 321.232 248.517 321.426 245.311C317.637 247.234 310.209 249.871 306 251.55L281.951 261.306C282.912 264.151 283.142 267.517 284.418 270.283C284.793 271.097 285.091 271.31 284.883 271.955L284.443 271.788C282.194 268.824 281.326 265.355 280.269 261.784C278.601 262.417 266.763 266.666 266.359 267.346C257.333 282.521 248.616 297.962 239.596 313.173C237.066 317.439 234.076 321.693 231.773 326.024C239.285 326.224 246.648 325.753 254.137 325.619C256.536 325.576 258.928 325.972 261.332 325.938C266.077 325.872 293.425 324.43 295.141 325.45C295.678 325.768 295.784 326.061 295.941 326.635L295.591 327.109C291.835 329.097 268.645 327.253 262.951 328.287C260.64 328.706 252.141 328.44 249.554 327.95C250.794 329.03 252.01 330.136 253.202 331.268C252.148 333.688 248.621 338.986 246.94 341.103C243.487 339.193 240.092 337.179 236.761 335.063L238.376 331.158C236.215 330.575 232.906 329.294 230.684 328.514C228.422 333.059 224.85 338.154 222.314 342.68C218.536 349.422 214.579 356.14 210.646 362.797C211.599 363.214 213.488 363.891 213.916 364.76C213.447 366.62 210.423 372.034 208.718 373.127C208.168 373.03 200.836 368.515 200.02 367.883C201.518 365.587 203.031 361.234 205.653 360.25C206.587 359.899 207.851 360.952 208.626 361.489C209.155 360.011 212.863 353.752 213.933 351.955C218.474 344.328 222.928 336.526 227.523 328.946L223.313 329.049L205.691 329C205.701 330.604 205.837 332.36 205.929 333.974C201.632 333.949 197.335 333.954 193.038 333.987L193.108 321.256C196.29 321.589 202.384 321.447 205.779 321.469L205.668 326.942C212.886 326.969 220.356 325.972 227.236 326.593C223.874 324.166 216.151 320.613 211.957 318.35L191.682 307.436C188.868 305.919 182.289 302.239 179.589 301.211C175.891 301.871 163.291 307.698 159 309.288C158.382 309.517 158.447 309.684 158.297 310.165C158.523 310.792 158.754 311.201 158.626 311.843L157.995 312.052C157.288 311.6 157.553 311.211 156.989 310.108C156.123 309.879 143.231 315.465 140.189 315.987C143.235 318.429 147.384 322.493 150.337 325.245C158.39 332.827 166.337 340.52 174.175 348.324C178.65 352.703 182.921 357.112 187.651 361.276C187.012 362.267 186.905 362.626 185.863 362.859C184.043 362.203 172.118 349.822 169.622 347.45L152.439 330.903C149.159 327.768 140.588 320.319 138.654 316.891C137.425 317.27 134.157 318.747 132.721 319.326L119.996 324.393C113.865 326.848 103.625 330.316 98.3134 333.361L96.6813 331.147C99.5077 329.481 105.071 327.628 108.37 326.245C117.178 322.553 127.627 319.059 136.222 315.069C129.438 307.856 122.167 301.404 115.153 294.42C108.954 288.282 102.793 282.106 96.6701 275.893C93.2921 272.415 90.1036 268.509 86.455 265.356C82.6958 262.108 79.3933 258.683 75.9869 255.078C76.2685 271.388 76.067 288.14 76.2836 304.557C77.142 302.542 79.7439 296.937 80.1996 295.122C79.9426 294.306 78.4232 293.188 77.6404 292.478C77.1251 290.461 76.8773 289.391 77.5728 287.334C78.6146 284.254 82.3987 283.299 85.1905 284.42C86.6394 285 87.7919 286.142 88.3857 287.586C90.197 292.115 85.9067 294.54 82.5027 295.925C81.7688 298.218 76.9009 310.72 75.5447 311.881L74.9387 311.782C74.0806 311.092 73.8712 310.513 73.3521 309.543C73.9337 306.373 73.7773 302.974 73.7802 299.73C73.7643 294.055 73.6894 288.38 73.5557 282.706C73.4678 277.55 73.3512 272.4 73.2516 267.246C73.1833 263.714 73.382 260.176 73.2245 256.625C70.6534 263.037 67.6603 269.752 64.9411 276.121C64.383 277.428 64.6066 278.523 62.9975 279.029C61.7192 278.461 61.9674 277.355 62.3578 276.19C64.6506 269.349 68.522 262.656 70.3658 255.676C63.655 250.097 68.1511 248.291 65.9789 246.161C59.9445 240.241 54.5679 233.623 48.3218 227.935C46.7743 226.525 44.1806 226.22 43.3111 224.455C43.3381 224.258 43.497 223.001 43.4388 222.9C42.549 221.357 39.0784 219.672 38.6495 218.104C38.8601 217.144 38.634 217.539 39.341 216.869C40.4639 216.869 42.4704 218.504 43.2484 219.284C51.6189 227.682 64.1587 232.086 73.0869 239.3C72.8348 233.972 73.319 228.227 72.9533 223.001C72.2589 213.079 72.4137 203.383 72.3074 193.46C72.2416 187.316 71.968 181.007 72.1988 174.878C70.5055 174.848 68.8735 174.904 67.1837 174.956C67.298 170.873 67.2388 166.405 67.2322 162.31C82.6266 161.194 79.0713 161.01 79.5223 174.712C77.6389 174.78 76.2496 174.764 74.3663 174.672C75.1738 184.091 74.813 193.444 75.0066 202.855C75.248 214.592 75.7043 226.299 75.5138 238.055C75.5004 238.883 75.5964 239.606 76.094 240.259L76.6171 240.294C78.9611 237.884 82.1112 226.848 84.3569 223.144C82.4881 222.709 81.5595 222.431 79.7685 221.747C81.1229 219.176 82.4927 211.383 84.6479 210.742C85.822 210.968 87.07 211.862 88.1154 212.507C90.5359 209.071 92.1807 204.088 93.965 200.247C98.49 190.506 102.503 179.258 107.259 169.743C102.923 165 104.623 159.601 111.234 158.899C113.286 155.56 118.648 142.898 119.396 139.286C117.918 134.797 115.855 130.059 114.801 125.445C112.171 126.796 108.878 127.974 106.106 129.337L46.6183 158.567C44.7439 159.468 41.8174 162.042 40.254 160.733C39.9737 159.823 39.9637 160.252 40.1799 159.404C42.911 157.269 46.7901 155.65 49.9924 154.119C54.4808 152.001 58.9565 149.856 63.4192 147.684L93.6042 132.826C100.161 129.545 107.431 125.558 114.066 122.68C113.516 121.818 113.049 121.343 113.153 120.364L113.479 120.111C114.278 120.438 114.745 121.081 115.349 121.729C116.284 121.598 117.035 121.127 117.859 120.691C118.743 120.223 119.825 119.829 120.557 119.139C121.417 118.327 122.484 116.021 123.475 115.61C124.837 115.046 126.406 116.888 127.937 116.265C130.351 115.281 144.744 78.949 146.846 73.4348C145.135 72.9695 144.205 72.4524 142.703 71.5634C143.598 70.0816 144.154 68.8516 144.874 67.2916C141.913 66.8111 130.806 61.061 127.645 58.9591C127.216 58.6741 127.246 57.9636 127.327 57.4463C127.394 57.4069 127.455 57.3569 127.528 57.3282C129.86 56.4012 142.782 64.0155 145.77 65.3681C146.106 64.125 146.637 61.9891 147.86 61.3769C148.864 60.8735 149.76 61.6224 150.892 61.7536C152.708 60.0122 157.267 46.6294 159.86 42.5665ZM151.94 147.894C152.08 150.638 151.892 153.196 152.006 155.764C153.177 157.693 155.363 160.046 156.877 161.843C158.877 164.244 160.844 166.672 162.777 169.128C169.15 177.146 175.37 185.273 181.42 193.542C182.271 194.706 183.268 195.562 184.086 196.617C179.812 194.817 177.244 194.619 173.141 193.368C168.589 191.98 163.776 190.558 159.25 189.125C154.974 187.744 150.717 186.304 146.481 184.806C144.61 184.142 140.826 182.666 139.024 182.283C136.628 178.944 136.06 176.649 134.204 173.4C131.416 168.522 129.124 164.426 126.697 159.305C125.298 159.938 118.079 162.847 117.243 164.153C116.96 164.594 117.225 166.38 116.166 168.217L115.444 169.483C113.321 170.678 112.208 171.677 109.841 171.096C108.098 171.947 93.9448 207.84 90.6745 213.023C91.8915 213.414 94.3759 214.114 95.3629 214.736C95.4256 216.348 92.4095 224.699 91.5554 226.366C89.7363 224.944 88.7621 224.858 86.5256 224.217C84.5391 228.739 81.0062 238.757 78.6011 242.099C81.1142 242.826 106.866 257.882 109.831 259.841C110.744 254.784 114.166 244.381 116.249 239.419C117.875 235.546 131.718 209.57 133.875 207.974C134.279 207.676 134.772 207.51 135.252 207.379C144.595 204.823 154.144 202.738 163.563 200.45C167.035 199.607 173.907 197.421 177.104 197.361C177.717 199.496 173.842 199.932 173.749 200.84C173.418 204.065 171.145 205.848 169.063 208.557C164.537 214.372 159.793 220.014 154.842 225.471C151.68 229.018 147.756 233.059 144.939 236.885C145.65 239.952 145.504 242.949 145.674 246.015C146.255 256.56 145.407 267.401 148.348 277.657C148.662 278.755 148.915 279.998 149.19 281.129C151.733 282.584 154.399 283.957 156.897 285.442C164.52 289.488 171.979 294.203 179.802 298.005C185.508 296.008 191.433 293.513 197.074 291.255L219.959 282.208C224.288 280.471 228.633 278.775 232.994 277.121C235.492 276.159 240.594 274.222 242.77 272.961C243.76 270.518 245.359 240.754 245.124 236.399C241.29 231.922 237.258 227.711 233.515 223.168C231.747 221.022 229.571 219.12 227.833 216.944C223.935 212.062 220.158 207.047 216.411 202.049C215.461 200.778 213.019 199.002 213.046 197.656C215.122 197.473 225.268 200.317 227.724 200.898L255.581 207.418C257.692 209.313 261.663 216.475 262.97 219.236C266.608 226.923 274.756 236.744 276.443 244.762L276.55 244.489C278.387 239.899 292.854 217.557 292.743 215.095C290.769 211.114 286.318 208.215 283.287 205.375C282.38 207.171 281.774 208.359 279.708 208.956C274.227 210.542 269.931 204.213 272.843 199.513C273.703 198.126 274.51 197.671 275.798 196.793C271.431 193.699 265.936 187.194 261.702 183.432C260.519 182.38 255.091 177.287 254.512 176.49C251.499 182.362 251.595 182.603 245.233 184.474C234.623 187.592 224.195 191.557 213.432 194.245C211.49 194.736 210.064 194.856 208.287 195.901L207.91 195.761C207.721 193.425 211.628 189.823 212.983 187.792C219.871 177.471 229.917 167.909 236.666 157.628C232.119 155.762 226.067 150.607 221.633 147.889C214.536 143.538 207.648 138.581 200.542 134.223C199.145 133.366 193.83 129.328 192.653 129.491C186.365 132.086 180.382 135.215 174.113 137.965C166.82 141.164 159.767 145.199 152.175 147.814L151.94 147.894ZM156.327 72.7904C155.148 77.1881 152.667 76.5115 149.385 74.4423C147.525 79.7065 144.572 85.2402 142.544 90.5887C139.521 98.5595 136.221 106.42 132.513 114.099C138.219 110.665 146.681 107.739 152.644 104.573C153.294 103.553 159.873 87.1668 160.105 85.9366C160.455 84.713 160.611 83.821 161.426 82.8452L161.808 82.7227C162.232 84.7293 157.669 99.1837 156.848 102.339C159.845 101.242 186.838 88.7303 187.469 88.0062C186.811 86.8066 184.452 86.2036 183.144 85.5766L168.892 78.9082C166.957 77.9796 157.838 73.016 156.327 72.7904ZM314.91 233.274C316.925 235.319 321.613 240.941 324.124 241.142C324.995 240.813 324.671 241.088 325.141 240.3C325.08 238.206 324.28 234.614 323.859 232.432L321.387 219.505L317.34 197.904C317.009 196.09 315.127 184.685 314.328 183.892C313.549 184.811 309.177 192.365 308.428 193.741C304.837 200.341 299.565 208.315 296.422 214.964C298.785 216.867 301.793 219.995 303.988 222.207L314.91 233.274ZM122.143 139.736C123.49 142.23 124.779 144.754 126.011 147.307C127.333 149.975 128.709 152.614 130.14 155.225C133.219 153.562 136.865 152.307 139.987 150.615C141.54 149.774 143.527 149.153 144.985 148.176C145.348 139.216 146.704 128.914 148.258 120.017C148.591 118.111 151.732 109.157 151.237 108.015C148.215 109.778 132.23 116.053 131.349 117.652C132.563 118.86 134.419 117.913 134.871 119.727C134.354 121.623 133.655 123.394 133.059 125.261C132.454 127.154 132.71 129.228 131.23 130.71C129.863 131.16 128.364 130.168 126.484 129.726C124.87 133.158 123.491 136.193 122.143 139.736ZM239.851 113.069C239.963 114.078 240.227 115.094 240.578 116.044C243.077 122.814 243.473 129.178 244.123 136.318L245.641 151.902C245.833 153.836 245.97 156.465 246.599 158.213C245.834 159.944 245.635 160.459 244.341 161.886C246.287 163.497 249.669 167.645 250.619 168.247C252.013 167.716 257.97 158.862 259.751 156.812C265.889 146.616 269.052 140.351 273.894 129.546C267.252 126.841 259.234 122.543 252.777 119.355L243.81 114.915C243.324 114.669 240.198 113.138 239.851 113.069ZM272.575 85.3033C269.259 86.5274 267.544 90.1916 268.73 93.5217C269.916 96.8517 273.56 98.608 276.904 97.4608C279.101 96.7068 280.724 94.8299 281.152 92.5465C281.58 90.2631 280.748 87.9258 278.973 86.4269C277.198 84.928 274.754 84.4989 272.575 85.3033ZM231.187 109.062C221.029 104.092 210.841 99.2779 200.721 94.2192C198.848 93.2832 192.106 89.4551 190.472 89.183C187.437 91.0675 184.453 92.2436 181.29 93.8101C176.195 96.3324 171.101 98.8659 165.88 101.124C162.667 102.514 159.525 104.356 156.257 105.5C152.223 117.871 152.51 132.156 152.049 144.971C156.518 143.258 188.192 129.039 189.54 127.573C189.567 126.452 184.389 123.369 183.156 122.566C182.542 123.582 181.709 125.057 180.988 125.942C179.448 125.081 177.275 123.948 175.862 122.977C174.125 121.934 172.797 121.179 170.96 120.267C171.675 118.304 176.094 111.229 177.824 110.311C178.844 110.64 185.217 115.362 186.692 116.374C185.635 117.884 185.092 118.85 184.216 120.485L184.505 120.631C187.397 122.119 190.158 124.886 193.064 125.917C193.901 126.214 200.047 123.161 201.296 122.61C207.943 119.677 214.427 116.424 221.096 113.519C224.896 111.864 226.845 109.951 231.187 109.062ZM307.282 142.921C306.125 138.492 305.438 132.673 304.657 128.047C302.206 113.527 298.929 99.2152 296.796 84.6395C296.714 84.0801 296.208 83.1166 295.798 82.7071C295.638 84.6448 295.736 87.0419 295.819 88.9944C296.176 97.373 295.694 105.896 296.602 114.237C297.466 122.17 296.483 130.438 297.308 138.274C300.134 139.341 305.016 142.469 307.282 142.921ZM257.861 119.266C263.3 122.316 269.484 124.571 274.84 127.463C276.724 122.271 276.337 119.626 276.19 114.145C276.074 109.839 276.027 105.238 276.241 100.946C268.505 101.291 268.555 96.43 266.149 95.7516C262.785 97.046 257.65 99.5553 254.354 101.132C251.545 102.476 240.706 107.079 238.904 108.525C238.857 109.023 238.723 109.206 239.06 109.435C244.297 112.988 252.383 116.002 257.861 119.266ZM255.818 174.353C258.538 176.268 264.045 181.986 266.729 184.586C269.912 187.593 273.528 191.001 276.394 194.281C276.154 189.197 276.533 181.793 276.553 176.408C276.587 165.858 276.482 155.308 276.239 144.76C276.179 142.068 276.171 139.376 276.214 136.684C276.241 135.13 276.754 131.374 275.503 130.58L275.425 130.771C272.736 137.492 270.767 145.332 267.84 151.941C264.55 159.372 260.074 167.386 255.818 174.353ZM195.103 294.814C191.86 296.108 185.42 298.933 182.32 299.484C185.026 300.484 187.187 301.972 189.705 303.359L201.696 309.881C205.263 311.842 209.131 313.687 212.764 315.567L229.742 324.443C232.582 319.332 262.197 270.604 262.131 268.819C262.006 268.797 261.736 268.731 261.628 268.747C257.558 270.571 250.672 272.537 247.359 274.685C246.174 278.871 235.079 308.01 232.948 309.857L232.58 309.808C232.222 308.36 242.028 282.763 241.902 276.767C241.052 276.646 197.563 293.314 195.103 294.814ZM131.514 157.355L131.709 157.573C135.934 162.34 139.623 169.462 143.422 173.996C144.257 174.982 145.239 175.833 146.334 176.519C148.282 177.75 151.349 179.03 153.483 180.149C159.296 183.198 165.629 185.947 171.409 188.971C172.596 189.685 176.988 192.381 178.143 192.147C177.364 190.265 168.155 182.422 166.19 180.527C164.384 178.784 161.218 175.508 159.145 173.694C155.958 170.908 152.185 168.014 149.305 164.71C149.145 164.526 149.119 163.594 149.116 163.307C148.385 162.587 147.878 163.082 147.568 162.887C146.527 162.234 144.92 160.2 144.155 159.297C144.115 158.111 144.39 152.228 144.102 151.78L143.789 151.713C140.61 153.018 133.888 156.736 131.514 157.355ZM280.961 258.926C284.238 257.437 293.53 253.67 296.892 252.699C301.159 250.356 308.872 248.012 313.536 245.889C316.007 244.765 318.157 244.402 320.474 242.664C319.225 241.662 318.245 240.649 317.138 239.496C309.964 232.025 302.658 224.682 295.333 217.359C295.136 217.162 295.222 217.24 294.906 217.093C293.627 220.036 291.691 223.126 290.08 225.945L281.806 240.323C280.494 242.569 278.498 245.671 277.518 247.93C279.169 251.641 279.957 254.986 280.961 258.926ZM279.26 259.217C278.555 258.101 275.597 251.42 275.608 251.431C272.978 255.337 270.974 259.548 268.227 263.331C268.956 263.061 270.709 262.371 271.401 262.207C273.712 261.345 277.108 259.941 279.26 259.217ZM124.245 129.197C123.316 128.896 120.327 128.066 119.778 127.38C119.84 126.103 120.437 124.179 120.921 122.975L120.801 122.529C120.45 122.477 120.437 122.417 120.155 122.518C119.043 122.94 117.123 123.64 116.476 124.645C116.982 126.739 119.799 133.874 120.823 135.636L121.474 135.663C122.437 133.331 122.967 131.411 124.245 129.197ZM310.23 158.152C309.926 156.029 309.592 154.341 309.146 152.259C308.058 151.572 306.287 150.74 305.641 149.912C305.323 148.363 306.488 147.452 307.456 146.279C306.181 145.625 298.8 141.711 297.891 141.588C297.832 142.788 298.086 143.977 298.026 145.14C297.545 154.442 299.243 163.905 298.889 173.182C300.584 173.132 302.397 173.025 304.073 173.205C304.015 176.762 304.04 180.248 304.273 183.798C304.31 184.36 304.04 184.943 303.734 185.408C302.203 186.568 294.501 185.996 292.008 186.026C292.082 183.345 291.352 174.808 292.044 173.5C293.262 173.098 295.18 173.237 296.53 173.268C295.949 169.48 296.069 161.622 296.012 157.604C295.877 151.767 295.596 145.933 295.169 140.11C293.441 138.867 288.803 136.989 286.638 135.994C284.347 134.94 281.223 133.24 278.99 132.323C279.011 139.778 278.587 195.143 279.656 196.906L281.255 197.926C282.965 199.029 283.811 202.116 285.173 203.636C288.027 206.817 291.776 209.967 294.663 212.96C295.382 210.82 297.497 207.645 298.724 205.535L305.874 193.262C308.251 189.242 311.548 182.94 314.171 179.378C312.89 176.15 311.089 162.547 310.23 158.152ZM55.3803 231.577C56.529 232.685 58.2448 234.384 59.5356 235.23C61.5816 237.172 65.3589 242.48 68.1648 244.068C68.8293 244.445 71.2927 242.497 72.7157 241.815C70.1901 240.303 62.0755 235.227 59.6636 234.716C58.2401 232.915 57.434 232.574 55.3803 231.577ZM149.961 284.972C151.352 290.56 154.64 301.895 156.884 307.081C161.6 305.478 166.16 303.478 170.868 301.798C172.748 300.586 174.842 300.168 177.012 299.623C174.739 298.152 172.347 297.189 169.973 295.903C165.637 293.555 161.378 290.938 157.055 288.591C155.727 287.871 151.234 285.344 149.961 284.972ZM295.712 81.5091C295.873 79.4501 295.611 77.9645 295.347 75.9384C294.868 77.7786 295.216 79.7075 295.712 81.5091ZM118.316 160.091C120.857 159.306 122.654 157.978 125.376 157.204L125.56 157.154C124.691 155.359 121.044 145.052 120.392 144.622C119.533 146.725 113.922 158.584 114.237 159.747C115.395 161.228 116.854 160.768 118.316 160.091ZM214.875 140.432C222.742 145.524 230.5 150.784 238.142 156.207C238.501 142.479 238.087 127.932 235.823 114.409C235.643 113.332 235.498 110.851 234.785 110.068L234.456 110.004C228.735 113.024 222.411 115.436 216.691 118.588C214.119 120.006 210.85 120.916 208.218 122.27C206.27 123.179 204.069 124.435 202.151 125.439C200.708 126.194 197.206 127.351 196.092 128.156L196.055 128.448C199.87 130.698 203.539 133.105 207.227 135.553C209.392 136.99 212.918 138.95 214.875 140.432ZM249.514 171.132C248.65 170.198 243.209 164.149 242.377 163.922C237.077 169.643 229.796 174.896 224.233 180.444C219.842 184.823 213.631 189.048 209.759 193.781C211.781 192.735 214.096 191.505 216.143 190.545C225.904 185.275 235.964 180.949 245.626 175.599C246.454 175.141 248.512 172.113 249.514 171.132ZM217.878 201.282C218.954 203.106 224.092 207.15 225.911 208.733L245.559 225.966C248.922 228.958 250.468 229.904 253.605 233.415C253.085 235.86 252.878 238.215 252.59 240.689C251.533 249.762 250.234 258.808 249.078 267.868C248.994 268.525 248.878 270.208 249.16 270.767C253.581 269.236 258.852 267.023 263.48 265.342C266.215 263.693 272.011 251.822 274.422 248.102L274.201 247.815C271.922 244.809 269.917 240.682 267.619 237.388C264.361 232.808 261.061 228.258 257.719 223.738C255.209 220.305 252.67 215.48 248.561 213.717C244.654 212.041 240.514 210.75 236.58 209.132C230.42 206.69 224.049 203.542 217.878 201.282ZM172.491 200.991L152.008 209.603C147.39 211.525 139.338 214.094 136.397 218.086C131.524 224.701 126.712 231.661 122.171 238.517C118.482 244.089 115.351 251.177 112.851 257.371C112.407 258.47 111.975 259.574 111.554 260.682C114.78 262.172 117.709 264.173 120.814 265.863C123.227 267.176 125.695 268.387 128.132 269.698C133.524 272.827 138.831 275.722 144.248 278.897C143.687 277.206 141.676 271.299 141.52 269.979C141.062 266.085 140.26 260.41 139.897 256.652C139.451 252.025 136.542 236.826 137.156 233.514C139.863 228.945 164.141 209.054 169.676 204.006C170.43 203.318 171.831 202.648 172.637 202C173.177 201.567 173.094 201.624 173.087 201.107L172.491 200.991ZM79.21 245.662C82.4346 249.164 81.2806 250.591 78.5142 253.997C81.8879 256.992 84.7044 260.219 87.8981 263.367C100.332 275.625 112.65 288.013 125.052 300.322L133.84 309.057C135.453 310.673 137.542 312.933 139.249 314.317C142.556 312.552 146.112 311.396 149.627 310.069C151.609 309.32 153.858 308.314 155.793 307.677C155.576 307.264 155.055 306.335 154.916 305.935C152.42 300.453 150.36 294.513 148.012 288.948C147.252 287.147 146.07 283.897 145.191 282.297C142.331 280.303 138.596 278.874 135.566 277.125C127.314 272.364 118.914 268.023 110.698 263.207C108.951 267.182 108.565 270.183 105.446 272.975C106.905 269.471 107.831 265.622 109.111 262.599C102.494 258.73 95.8479 254.912 89.1722 251.146C87.105 249.962 81.0014 246.254 79.21 245.662Z"/><path d="M202.921 144.092C204.65 146.299 205.966 148.986 207.471 151.363C209.059 153.871 211.137 156.339 212.303 159.069C213.722 162.389 214.831 177.903 215.12 182.356C213.5 185.058 206.312 193.179 203.843 195.088C207.042 197.224 211.031 202.394 213.907 205.418C215.729 207.333 224.823 215.221 225.099 217.324C225.369 219.375 225.081 226.588 225.058 229L224.967 248.728C222.511 250.211 219.644 251.67 217.04 253.224C215.819 253.777 211.075 256.67 209.748 257.465C205.071 260.267 199.669 263.217 195.207 266.296C185.385 260.265 175.015 254.578 165.041 248.517C165.058 238.229 164.723 226.456 165.076 216.348C168.499 212.235 174.28 207.163 178.074 203.365C181.332 200.104 182.508 197.901 186.35 194.568C181.247 190.606 179.335 186.552 174.991 182.699C174.993 181.007 175.6 176.44 175.97 174.581C176.588 171.477 176.584 161.459 177.793 159.229C180.316 154.576 183.798 149.662 186.538 145.123L186.852 145.394C187.26 146.593 184.484 158.406 184.033 160.657C187.82 158.935 192.198 155.999 195.727 154.654C198.384 156.357 203.267 159.341 206.219 160.134C205.312 155.496 203.23 148.142 202.921 144.092Z"/><path fill="#827F80" fill-opacity="0.96470588" d="M55.3803 231.577C57.434 232.574 58.2401 232.915 59.6636 234.716L59.5356 235.23C58.2448 234.384 56.529 232.685 55.3803 231.577Z"/><path d="M295.347 75.9384C295.611 77.9645 295.873 79.4501 295.712 81.5091C295.216 79.7075 294.868 77.7786 295.347 75.9384Z"/><path d="M84.445 105.797C89.9039 106.314 95.5587 105.877 101.012 106.225C100.922 111.219 101.252 118.988 100.909 124.194C100.887 124.53 100.597 124.539 100.185 124.712C95.8668 123.796 92.0822 124.088 87.7165 124.13C86.4822 124.142 85.2171 124.077 84.0725 123.584C83.5854 122.349 84.0574 116.452 84.0555 114.751C84.0529 112.526 83.1525 107.423 84.445 105.797ZM86.2309 121.544C89.6128 121.4 95.17 121.181 98.4913 121.628C98.1538 118.204 98.2484 112.451 98.5399 108.98C95.3635 109.029 89.131 109.247 86.2625 108.83C86.3297 113.044 86.4615 117.341 86.2309 121.544Z"/></svg>